<svg xmlns="http://www.w3.org/2000/svg" viewBox="0 0 400 321.30301">
      <g stroke="none" fill="#000000" stroke-width="1px">
      <path d="M200.38 114.028c0 3.627.14 7.26-.027 10.88-.59 12.8-1.042 25.615-2.017 38.39-.78 10.232-3.202 20.194-6.91 29.8-1.15 2.976-3.505 4.91-6.16 6.475-5.98 3.52-12.608 5.17-19.34 6.37-21.567 3.843-43.346 3.95-65.146 3.447-4.857-.112-9.707-.48-14.563-.592-1.587-.036-2.367-.558-2.994-2.056-5.668-13.56-11.43-27.082-17.17-40.612-.347-.818-.734-1.62-1.195-2.635-1.422 1.278-2.666 2.376-3.887 3.498-6.37 5.852-12.71 11.746-19.14 17.54-1.23 1.113-1.29 1.834-.29 3.156 4.78 6.28 9.44 12.65 14.14 18.98.49.65.95 1.32 1.67 2.32-2.61 0-4.85.02-7.08-.01-6.53-.1-13.06-.17-19.58-.39-.84-.03-2.02-.69-2.43-1.4C18.98 190.93 9.81 174.6.63 158.28c-.18-.32-.31-.673-.627-1.383 10.44.766 18.38 6.066 26.12 12.52C83.98 113.004 141.77 56.642 199.86 0l173.73 169.242c7.652-6.47 15.84-11.77 26.41-12.62-.322.69-.552 1.282-.862 1.828-9.127 16.177-18.28 32.34-27.363 48.543-.733 1.307-1.51 1.788-3.006 1.775-8.72-.072-17.43-.036-26.37-.036l16.83-22.74-24.35-22.378c-.43.9-.79 1.606-1.1 2.332-5.78 13.596-11.58 27.186-17.29 40.81-.63 1.495-1.37 1.995-2.99 1.993-28.48-.06-56.96-.01-85.43-.1-3.07-.01-6.15-.74-9.21-1.24-2.84-.46-4.67-2.25-5.27-4.99-.89-4.06-1.66-8.15-2.26-12.26-2.1-14.33-4.17-28.66-6.11-43-1.45-10.74-2.68-21.52-4.01-32.27-.04-.29-.1-.58-.14-.87l-.73-.01zm-.207 41.39v54.185m-95.417 47.893c0 6.464 0 11.782.337 14.61.202 1.953.606 3.435 2.627 3.704.944.135 2.426.27 3.032.27.404 0 .54.2.54.403 0 .337-.338.54-1.08.54-3.705 0-7.95-.203-8.286-.203-.337 0-4.582.202-6.603.202-.74 0-1.078-.134-1.078-.54 0-.2.135-.403.54-.403.605 0 1.414-.14 2.02-.27 1.348-.27 1.685-1.75 1.954-3.71.33-2.83.33-8.15.33-14.61v-7.07c0-.27-.2-.41-.41-.41H70.12c-.202 0-.404.06-.404.4v7.07c0 6.46 0 11.78.34 14.61.2 1.95.607 3.43 2.63 3.7.94.13 2.423.27 3.03.27.403 0 .54.2.54.4 0 .33-.34.54-1.08.54-3.705 0-7.95-.21-8.287-.21-.34 0-4.58.2-6.6.2-.74 0-1.08-.14-1.08-.54 0-.2.13-.41.54-.41.6 0 1.41-.14 2.02-.27 1.35-.27 1.68-1.75 1.95-3.71.33-2.83.33-8.15.33-14.61V245.6c0-10.504 0-12.39-.14-14.544-.14-2.29-.68-3.368-2.9-3.84-.54-.135-1.69-.2-2.29-.2-.27 0-.54-.137-.54-.406 0-.4.33-.54 1.08-.54 3.03 0 7.27.208 7.61.208.33 0 4.58-.2 6.6-.2.74 0 1.07.132 1.07.54 0 .27-.27.4-.54.4-.47 0-.88.065-1.69.2-1.82.34-2.36 1.482-2.49 3.84-.14 2.153-.14 4.04-.14 14.543v1.41c0 .34.2.4.41.4h28.57c.2 0 .4-.06.4-.4v-1.41c0-10.5 0-12.39-.13-14.54-.14-2.29-.68-3.36-2.9-3.84-.54-.13-1.69-.2-2.29-.2-.27 0-.54-.13-.54-.4 0-.4.33-.54 1.07-.54 3.03 0 7.28.2 7.61.2.34 0 4.58-.21 6.6-.21.74 0 1.08.14 1.08.54 0 .27-.27.41-.54.41-.47 0-.88.07-1.68.2-1.82.34-2.36 1.49-2.49 3.84-.13 2.16-.13 4.04-.13 14.55v11.85zm23.984-11.85c0-10.506 0-12.39-.134-14.546-.135-2.29-.674-3.366-2.897-3.838-.54-.135-1.69-.202-2.3-.202-.27 0-.54-.135-.54-.404 0-.404.34-.54 1.08-.54 3.03 0 7.27.204 7.61.204.74 0 5.86-.203 7.95-.203 4.24 0 8.76.405 12.33 2.963 1.68 1.212 4.65 4.512 4.65 9.158 0 4.982-2.09 9.965-8.16 15.554 5.52 7.07 10.1 13.063 14.01 17.237 3.63 3.83 6.53 4.57 8.22 4.84 1.28.2 2.22.2 2.62.2.34 0 .61.2.61.4 0 .4-.41.54-1.62.54h-4.78c-3.78 0-5.46-.34-7.21-1.28-2.9-1.55-5.26-4.85-9.1-9.9-2.83-3.71-6-8.22-7.35-9.97-.27-.27-.48-.41-.88-.41l-8.29-.14c-.34 0-.48.2-.48.54v1.61c0 6.46 0 11.78.34 14.61.2 1.95.61 3.43 2.63 3.7.94.13 2.42.27 3.03.27.4 0 .54.2.54.4 0 .33-.34.54-1.08.54-3.71 0-7.95-.21-8.29-.21-.07 0-4.31.2-6.33.2-.74 0-1.08-.14-1.08-.54 0-.2.13-.4.54-.4.61 0 1.41-.14 2.02-.27 1.35-.27 1.68-1.75 1.95-3.71.33-2.83.33-8.15.33-14.61V245.6zm5.39 5.856c0 .337.135.607.472.81 1.01.605 4.11 1.076 7.075 1.076 1.617 0 3.503-.202 5.053-1.28 2.358-1.616 4.11-5.25 4.11-10.37 0-8.416-4.447-13.466-11.656-13.466-2.02 0-3.84.203-4.514.404-.337.135-.54.404-.54.808v22.018zm51.07 5.994c0 6.464 0 11.782.337 14.61.202 1.953.606 3.435 2.627 3.704.943.135 2.426.27 3.032.27.405 0 .54.2.54.403 0 .337-.337.54-1.078.54-3.707 0-7.95-.203-8.288-.203-.336 0-4.58.202-6.602.202-.742 0-1.078-.134-1.078-.54 0-.2.135-.403.54-.403.606 0 1.414-.14 2.02-.27 1.348-.27 1.684-1.75 1.954-3.71.337-2.83.337-8.15.337-14.61v-11.85c0-10.51 0-12.39-.13-14.55-.13-2.29-.81-3.44-2.29-3.77-.74-.21-1.62-.27-2.09-.27-.27 0-.54-.14-.54-.41 0-.4.34-.54 1.08-.54 2.22 0 6.47.2 6.81.2.34 0 4.58-.21 6.61-.21.74 0 1.08.13 1.08.54 0 .27-.27.4-.53.4-.47 0-.88.06-1.68.2-1.82.34-2.36 1.48-2.49 3.84-.13 2.15-.13 4.04-.13 14.54v11.85zm23.985-11.85c0-10.506 0-12.39-.135-14.546-.136-2.29-.674-3.366-2.898-3.838-.54-.135-1.684-.202-2.29-.202-.27 0-.54-.135-.54-.404 0-.404.338-.54 1.08-.54 3.03 0 7.275.204 7.612.204 1.617 0 4.244-.203 7.344-.203 11.05 0 13.475 6.734 13.475 10.1 0 5.522-3.167 8.82-6.334 12.12 4.98 1.55 11.65 6.33 11.65 14.208 0 7.205-5.66 14.68-17.18 14.68-.74 0-2.9-.136-4.85-.203-1.96-.134-3.84-.202-4.11-.202-.14 0-1.28 0-2.7.068-1.35 0-2.9.134-3.91.134-.75 0-1.08-.134-1.08-.54 0-.2.13-.403.54-.403.6 0 1.41-.14 2.02-.27 1.35-.27 1.68-1.75 1.95-3.71.34-2.83.34-8.15.34-14.61v-11.85zm5.39 1.48c0 .47.134.606.47.74.405.068 1.618.27 4.11.27 3.774 0 4.717-.135 6.132-1.75s2.425-4.04 2.425-6.8c0-5.59-2.493-11.583-9.095-11.583-.742 0-2.156.067-3.235.337-.606.135-.808.336-.808.74v18.046zm0 7.137c0 5.185 0 13.534.067 14.544.202 3.3.202 4.242 2.29 5.252 1.82.87 4.716 1.01 5.93 1.01 3.637 0 9.5-1.96 9.5-9.57 0-4.04-1.348-9.9-6.536-13.47-2.29-1.55-3.976-1.75-5.592-1.96-.876-.14-4.245-.14-5.256-.14-.27 0-.404.13-.404.47v3.84zm50.26-26.463c.81-2.22 1.08-2.625 1.483-2.625.405 0 .674.336 1.482 2.424 1.01 2.55 11.59 30.36 15.698 40.6 2.426 5.99 4.38 7.07 5.795 7.47 1.01.33 2.02.4 2.694.4.405 0 .674.06.674.4 0 .4-.6.54-1.34.54-1.01 0-5.93 0-10.58-.14-1.28-.07-2.02-.07-2.02-.47 0-.27.2-.41.47-.47.41-.14.81-.74.41-1.82l-6.26-16.57c-.13-.27-.27-.4-.6-.4h-14.49c-.33 0-.54.2-.67.53l-4.04 11.92c-.6 1.68-.94 3.3-.94 4.51 0 1.34 1.42 1.95 2.56 1.95h.68c.47 0 .67.13.67.4 0 .4-.4.54-1.01.54-1.61 0-4.51-.21-5.25-.21-.74 0-4.44.2-7.61.2-.87 0-1.28-.13-1.28-.54 0-.27.27-.4.61-.4.47 0 1.41-.07 1.95-.14 3.1-.41 4.45-2.97 5.66-6.33l15.29-41.82zm7.008 26.935c.337 0 .337-.203.27-.472l-6.4-18.18c-.338-1.01-.675-1.01-1.012 0l-5.92 18.18c-.13.337 0 .472.2.472h12.87zm30.453-9.09c0-10.505 0-12.39-.135-14.545-.13-2.29-.67-3.366-2.89-3.838-.54-.135-1.68-.202-2.29-.202-.27 0-.54-.135-.54-.404 0-.404.34-.54 1.08-.54 3.03 0 7.28.204 7.61.204.74 0 5.86-.203 7.95-.203 4.25 0 8.76.405 12.33 2.963 1.69 1.212 4.65 4.512 4.65 9.158 0 4.982-2.09 9.965-8.15 15.554 5.53 7.07 10.11 13.063 14.02 17.237 3.64 3.83 6.54 4.57 8.22 4.84 1.28.2 2.22.2 2.63.2.34 0 .61.2.61.4 0 .4-.4.54-1.61.54H341c-3.772 0-5.46-.34-7.21-1.28-2.895-1.55-5.254-4.85-9.094-9.9-2.83-3.71-5.994-8.22-7.342-9.97-.27-.27-.47-.41-.873-.41l-8.29-.14c-.34 0-.47.2-.47.54v1.61c0 6.46 0 11.78.34 14.61.21 1.95.61 3.43 2.63 3.7.94.13 2.43.27 3.03.27.41 0 .54.2.54.4 0 .33-.34.54-1.08.54-3.7 0-7.95-.21-8.28-.21-.06 0-4.31.2-6.33.2-.74 0-1.08-.14-1.08-.54 0-.2.14-.4.54-.4.61 0 1.42-.14 2.02-.27 1.35-.27 1.69-1.75 1.96-3.71.34-2.83.34-8.15.34-14.61V245.6zm5.39 5.857c0 .337.135.607.472.81 1.01.605 4.11 1.076 7.074 1.076 1.617 0 3.503-.202 5.053-1.28 2.358-1.616 4.11-5.25 4.11-10.37 0-8.416-4.447-13.466-11.656-13.466-2.03 0-3.84.203-4.52.404-.34.135-.54.404-.54.808v22.018zm-281.18 52.92c0 3.007 0 5.48.156 6.797.094.9.282 1.59 1.222 1.72.438.06 1.128.12 1.41.12.188 0 .25.09.25.19 0 .15-.156.25-.5.25-1.724 0-3.698-.1-3.855-.1-.16 0-2.14.09-3.08.09-.35 0-.5-.06-.5-.25 0-.1.06-.19.25-.19.28 0 .65-.07.94-.13.62-.13.78-.81.91-1.72.15-1.32.15-3.79.15-6.8v-13.24l-4.64.06c-1.95.03-2.7.25-3.2 1-.35.53-.44.75-.54.97-.09.25-.19.31-.31.31-.1 0-.16-.1-.16-.28 0-.32.62-3.01.69-3.26.06-.19.18-.6.31-.6.22 0 .53.31 1.38.37.9.09 2.09.15 2.47.15h11.75c1 0 1.72-.06 2.22-.16.47-.06.75-.16.87-.16.16 0 .16.18.16.37 0 .94-.1 3.1-.1 3.45 0 .28-.1.4-.22.4-.16 0-.22-.09-.25-.53l-.03-.34c-.1-.94-.85-1.66-3.86-1.73l-3.95-.06v13.25zm13.16-5.512c0-4.885 0-5.762-.064-6.763-.063-1.065-.313-1.566-1.348-1.785-.25-.063-.783-.094-1.065-.094-.13 0-.26-.063-.26-.188 0-.19.15-.25.5-.25 1.41 0 3.32.093 3.6.093.28 0 2.16-.094 3.1-.094.34 0 .5.06.5.25 0 .12-.13.18-.25.18-.22 0-.41.03-.79.09-.85.12-1.1.69-1.16 1.78-.06 1-.06 1.88-.06 6.76v4.38c0 4.51 1 6.45 2.35 7.73 1.53 1.44 2.94 1.73 4.73 1.73 1.91 0 3.79-.91 4.92-2.26 1.44-1.79 1.82-4.45 1.82-7.67v-3.91c0-4.89 0-5.76-.07-6.76-.07-1.07-.32-1.57-1.35-1.79-.26-.06-.79-.1-1.07-.1-.13 0-.25-.07-.25-.19 0-.19.16-.25.5-.25 1.41 0 3.13.09 3.32.09.22 0 1.69-.09 2.63-.09.34 0 .5.06.5.25 0 .13-.13.19-.25.19-.22 0-.41.03-.79.09-.85.18-1.1.69-1.16 1.78-.06 1-.06 1.88-.06 6.76v3.35c0 3.38-.38 7.14-2.88 9.36-2.26 2-4.61 2.31-6.46 2.31-1.07 0-4.23-.13-6.46-2.23-1.54-1.47-2.73-3.66-2.73-8.235v-4.57zm27.824 0c0-4.885 0-5.762-.065-6.763-.062-1.065-.313-1.566-1.347-1.785-.25-.063-.783-.094-1.065-.094-.126 0-.25-.063-.25-.188 0-.19.156-.25.5-.25 1.41 0 3.385.093 3.54.093.346 0 2.727-.094 3.7-.094 1.973 0 4.073.18 5.733 1.37.784.56 2.162 2.1 2.162 4.26 0 2.31-.97 4.63-3.79 7.23 2.57 3.29 4.7 6.07 6.517 8.01 1.692 1.78 3.04 2.13 3.823 2.25.596.09 1.034.09 1.222.09.156 0 .282.09.282.19 0 .19-.188.25-.752.25h-2.225c-1.755 0-2.538-.16-3.353-.6-1.348-.72-2.445-2.26-4.23-4.61-1.317-1.73-2.79-3.82-3.417-4.64-.125-.13-.22-.19-.407-.19l-3.854-.07c-.157 0-.22.09-.22.25v.75c0 3.01 0 5.48.157 6.8.1.9.29 1.59 1.23 1.72.44.06 1.13.12 1.41.12.19 0 .25.09.25.19 0 .15-.15.25-.5.25-1.72 0-3.7-.1-3.85-.1-.03 0-2 .1-2.94.1-.34 0-.5-.06-.5-.25 0-.1.06-.19.25-.19.28 0 .66-.06.94-.13.63-.13.79-.82.91-1.72.16-1.32.16-3.79.16-6.8v-5.51zm2.505 2.726c0 .156.063.28.22.376.47.28 1.91.5 3.29.5.752 0 1.63-.093 2.35-.595 1.097-.75 1.912-2.442 1.912-4.823 0-3.914-2.07-6.263-5.42-6.263-.942 0-1.788.1-2.1.19-.158.06-.252.19-.252.38v10.24zm23.75 2.787c0 3.006 0 5.48.158 6.796.094.9.282 1.59 1.222 1.72.438.06 1.128.12 1.41.12.188 0 .25.09.25.19 0 .15-.156.25-.5.25-1.724 0-3.698-.1-3.855-.1-.157 0-2.13.09-3.07.09-.345 0-.502-.06-.502-.25 0-.1.062-.19.25-.19.282 0 .658-.07.94-.13.627-.13.784-.81.91-1.72.156-1.32.156-3.79.156-6.8v-5.51c0-4.89 0-5.77-.062-6.77-.063-1.07-.376-1.6-1.066-1.76-.345-.1-.752-.13-.97-.13-.126 0-.252-.07-.252-.19 0-.19.157-.25.5-.25 1.036 0 3.01.09 3.167.09.16 0 2.14-.1 3.08-.1.35 0 .5.06.5.25 0 .13-.12.19-.25.19-.22 0-.4.03-.78.09-.84.15-1.09.69-1.16 1.78-.06 1-.06 1.88-.06 6.77v5.51zm9.15 8.675c-.44-.22-.47-.344-.47-1.19 0-1.566.125-2.82.156-3.32.04-.344.1-.5.26-.5.19 0 .22.093.22.344 0 .282 0 .72.1 1.16.47 2.316 2.54 3.193 4.64 3.193 3.01 0 4.48-2.16 4.48-4.166 0-2.17-.9-3.42-3.6-5.64l-1.41-1.16c-3.32-2.73-4.07-4.67-4.07-6.8 0-3.35 2.51-5.64 6.49-5.64 1.22 0 2.13.12 2.92.31.6.12.85.15 1.1.15.25 0 .32.06.32.22 0 .15-.12 1.19-.12 3.32 0 .5-.06.72-.22.72-.18 0-.22-.16-.25-.41-.03-.38-.22-1.22-.4-1.57-.19-.35-1.03-1.66-3.92-1.66-2.16 0-3.86 1.35-3.86 3.63 0 1.78.82 2.91 3.82 5.26l.88.69c3.7 2.91 4.58 4.85 4.58 7.36 0 1.28-.5 3.66-2.66 5.2-1.35.94-3.04 1.31-4.73 1.31-1.47 0-2.91-.22-4.2-.85zm26.54-8.675c0 3.006 0 5.48.156 6.796.1.9.29 1.59 1.23 1.72.44.06 1.13.12 1.41.12.19 0 .25.09.25.19 0 .15-.15.25-.5.25-1.72 0-3.7-.1-3.85-.1-.15 0-2.13.09-3.07.09-.34 0-.5-.06-.5-.25 0-.1.07-.19.25-.19.29 0 .66-.07.94-.13.63-.13.79-.81.91-1.72.16-1.32.16-3.79.16-6.8v-13.24l-4.63.06c-1.94.03-2.69.25-3.2 1-.34.53-.44.75-.53.97-.09.25-.19.31-.31.31-.09 0-.15-.1-.15-.28 0-.32.63-3.01.69-3.26.06-.19.19-.6.31-.6.22 0 .54.31 1.38.37.91.09 2.1.15 2.48.15h11.75c1.01 0 1.73-.06 2.23-.16.47-.06.75-.16.88-.16.16 0 .16.18.16.37 0 .94-.09 3.1-.09 3.45 0 .28-.09.4-.22.4-.15 0-.22-.09-.25-.53l-.03-.34c-.09-.94-.85-1.66-3.85-1.73l-3.95-.06v13.25zm17.61 0c0 3.006 0 5.48.156 6.796.1.9.29 1.59 1.23 1.72.44.06 1.13.12 1.41.12.19 0 .25.09.25.19 0 .15-.15.25-.5.25-1.72 0-3.7-.1-3.85-.1-.15 0-2.13.09-3.07.09-.34 0-.5-.06-.5-.25 0-.1.07-.19.25-.19.29 0 .66-.07.94-.13.63-.13.79-.81.91-1.72.16-1.32.16-3.79.16-6.8v-5.51c0-4.89 0-5.77-.06-6.77-.06-1.07-.37-1.6-1.06-1.76-.34-.1-.75-.13-.97-.13-.12 0-.25-.07-.25-.19 0-.19.16-.25.5-.25 1.04 0 3.01.09 3.17.09.16 0 2.13-.1 3.07-.1.35 0 .5.06.5.25 0 .13-.12.19-.25.19-.22 0-.41.03-.78.09-.84.15-1.09.69-1.16 1.78-.06 1-.06 1.88-.06 6.77v5.51zm10.902 6.137c-3.04-2.723-3.79-6.293-3.79-9.27 0-2.097.72-5.762 3.508-8.55 1.88-1.878 4.732-3.35 9.558-3.35 1.254 0 3.01.094 4.544.376 1.19.22 2.193.407 3.196.47.345.03.408.156.408.345 0 .25-.09.63-.15 1.76-.06 1.04-.06 2.76-.09 3.23-.03.47-.09.66-.28.66-.22 0-.25-.22-.25-.66 0-1.22-.5-2.5-1.32-3.19-1.09-.94-3.51-1.78-6.26-1.78-4.17 0-6.11 1.22-7.21 2.29-2.28 2.19-2.82 4.98-2.82 8.18 0 5.99 4.61 11.47 11.32 11.47 2.35 0 4.2-.28 5.46-1.56.66-.69 1.07-2.06 1.16-2.63.07-.34.13-.47.32-.47.16 0 .22.22.22.47 0 .22-.37 2.95-.69 4.01-.19.6-.25.66-.81.91-1.25.5-3.63.72-5.64.72-4.7 0-7.86-1.16-10.34-3.38zm5.39-26.65c.125-.126.188-.188.282-.188.09 0 .15.03.25.156.62.69 2.22 1.973 2.63 2.16.12.064.22.127.31.127.12 0 .25-.032.5-.157.72-.376 1.91-1.346 2.66-1.973.25-.22.47-.313.56-.313.12 0 .22.126.22.25 0 .126-.1.22-.19.345-.32.313-3.17 2.944-3.51 3.257-.25.22-.41.313-.53.313-.1 0-.22-.094-.47-.313-.25-.188-2.76-2.067-3.17-2.38-.28-.188-.38-.25-.38-.313 0-.09.09-.18.15-.28l.65-.69zm20.46 25.336c.063 2.568.376 3.382 1.22 3.633.598.15 1.287.18 1.57.18.156 0 .25.06.25.19 0 .19-.188.25-.564.25-1.786 0-3.04-.1-3.322-.1-.28 0-1.59.09-3 .09-.31 0-.5-.03-.5-.25 0-.13.1-.19.25-.19.25 0 .82-.03 1.29-.19.79-.22.94-1.13.94-3.98l.03-17.95c0-1.22.1-1.56.35-1.56.25 0 .79.69 1.1 1 .47.53 5.14 5.57 9.97 10.74 3.11 3.32 6.52 7.14 7.52 8.17l-.34-15.91c-.03-2.04-.25-2.73-1.22-2.98-.56-.13-1.28-.16-1.53-.16-.22 0-.25-.1-.25-.22 0-.19.25-.22.63-.22 1.41 0 2.92.09 3.26.09.35 0 1.38-.1 2.67-.1.35 0 .57.03.57.22 0 .12-.12.22-.34.22-.15 0-.37 0-.75.09-1.03.22-1.16.91-1.16 2.79l-.06 18.35c0 2.07-.06 2.22-.28 2.22-.25 0-.63-.35-2.29-2.01-.34-.31-4.86-4.92-8.18-8.49-3.63-3.92-7.17-7.86-8.18-8.99l.41 15zm33.34-18.634c.376-1.034.5-1.22.69-1.22.187 0 .312.155.688 1.126.47 1.19 5.39 14.124 7.302 18.885 1.128 2.787 2.037 3.288 2.695 3.477.47.156.94.188 1.253.188.19 0 .314.03.314.187 0 .188-.29.25-.63.25-.47 0-2.76 0-4.92-.062-.6-.03-.94-.03-.94-.22 0-.124.09-.187.22-.218.18-.063.37-.345.18-.846l-2.92-7.71c-.06-.13-.13-.19-.28-.19h-6.74c-.16 0-.25.09-.32.25l-1.88 5.54c-.28.78-.44 1.53-.44 2.1 0 .62.66.9 1.19.9h.31c.22 0 .31.06.31.19 0 .19-.19.25-.47.25-.75 0-2.1-.1-2.45-.1-.35 0-2.07.09-3.54.09-.41 0-.6-.06-.6-.25 0-.13.12-.19.28-.19.22 0 .66-.03.91-.07 1.44-.19 2.06-1.38 2.63-2.94l7.11-19.45zm3.26 12.527c.156 0 .156-.1.124-.22l-2.97-8.46c-.15-.47-.31-.47-.47 0l-2.76 8.45c-.06.15 0 .22.1.22h5.99zm24.343-4.23c0-4.89 0-5.77-.062-6.77-.062-1.07-.313-1.57-1.347-1.79-.25-.07-.78-.1-1.06-.1-.12 0-.25-.07-.25-.19 0-.19.16-.25.5-.25 1.41 0 3.26.09 3.45.09.28 0 2.1-.1 3.04-.1.35 0 .5.06.5.25 0 .12-.12.18-.25.18-.22 0-.4.03-.78.09-.84.16-1.09.69-1.16 1.79-.06 1-.06 1.88-.06 6.76v1.88h.13c.54-.6 6.21-6.36 7.34-7.58.88-.91 1.69-1.72 1.69-2.26 0-.38-.15-.57-.4-.66-.15-.06-.28-.13-.28-.25 0-.16.16-.22.38-.22.63 0 1.6.09 2.35.09.16 0 2.23-.09 3.01-.09.35 0 .47.06.47.21s-.06.22-.31.22c-.47 0-1.12.15-1.75.44-1.28.56-1.97 1.34-3.38 2.69-.78.75-6.24 6.07-6.89 6.85.82.91 7.34 7.64 8.62 8.83 2.63 2.44 3.17 2.94 4.67 3.57.82.34 1.73.41 1.94.41.22 0 .41.06.41.19 0 .15-.15.25-.69.25h-1.59c-.87 0-1.47 0-2.16-.06-1.66-.16-2.44-.85-3.79-1.91-1.41-1.16-8.05-8.33-9.55-10.18h-.16v3.07c0 3 0 5.48.16 6.79.09.91.28 1.6 1.22 1.72.44.065.94.13 1.22.13.19 0 .25.09.25.184 0 .16-.15.25-.5.25-1.53 0-3.35-.09-3.6-.09s-2.07.09-3.01.09c-.35 0-.5-.06-.5-.25 0-.09.06-.18.25-.18.28 0 .66-.068.94-.13.62-.13.78-.82.91-1.72.16-1.32.16-3.79.16-6.8v-5.51z" stroke="none" fill="#000000" stroke-width="1px"></path>
      <path d="M291.618 309.496c.126 1.128.345 2.882 1.693 3.32.91.282 1.73.282 2.04.282.16 0 .25.03.25.157 0 .188-.28.28-.65.28-.69 0-4.07-.03-5.23-.124-.72-.06-.87-.15-.87-.31 0-.12.06-.19.22-.22s.19-.56.13-1.12l-1.51-16.25h-.09l-7.68 16.29c-.66 1.38-.75 1.66-1.04 1.66-.22 0-.37-.31-.97-1.44-.81-1.53-3.51-6.95-3.66-7.26-.28-.56-3.79-8.08-4.14-8.92h-.12l-1.25 14.53c-.03.5-.03 1.07-.03 1.6 0 .47.35.88.82.97.54.13 1.01.16 1.19.16.13 0 .25.07.25.16 0 .22-.18.28-.56.28-1.16 0-2.66-.09-2.91-.09-.29 0-1.79.1-2.64.1-.31 0-.53-.06-.53-.28 0-.09.16-.16.32-.16.25 0 .47 0 .94-.09 1.04-.19 1.13-1.41 1.26-2.6L269.1 290c.03-.34.16-.56.35-.56.19 0 .32.12.47.47l9.59 19.7 9.217-19.67c.126-.28.25-.5.47-.5.22 0 .31.25.377.84l2.1 19.26zm9.586-10.586c0-4.885 0-5.762-.063-6.763-.06-1.065-.31-1.566-1.34-1.785-.25-.063-.78-.094-1.06-.094-.12 0-.25-.063-.25-.188 0-.19.16-.25.5-.25.72 0 1.57 0 2.26.03l1.29.063c.22 0 6.46 0 7.18-.032.6-.03 1.1-.09 1.35-.15.16-.03.28-.15.44-.15.09 0 .13.13.13.28 0 .22-.15.6-.25 1.48-.03.32-.09 1.69-.16 2.07-.03.16-.09.35-.22.35-.18 0-.25-.15-.25-.41 0-.22-.03-.75-.18-1.12-.22-.5-.53-.88-2.22-1.06-.53-.06-3.95-.09-4.29-.09-.13 0-.19.1-.19.31v8.65c0 .22.03.31.19.31.41 0 4.27 0 4.99-.06.75-.06 1.19-.12 1.48-.44.22-.25.35-.41.47-.41.1 0 .16.07.16.25 0 .19-.16.72-.25 1.76-.06.63-.12 1.79-.12 2.01 0 .25 0 .6-.22.6-.154 0-.22-.12-.22-.28 0-.31 0-.63-.122-1.03-.126-.44-.41-.97-1.63-1.09-.846-.09-3.95-.16-4.48-.16-.157 0-.22.1-.22.22v2.76c0 1.068-.03 4.7 0 5.358.094 2.16.564 2.567 3.635 2.567.82 0 2.2 0 3.01-.343.81-.34 1.19-.97 1.41-2.25.06-.35.12-.47.28-.47.19 0 .19.25.19.47 0 .25-.25 2.38-.41 3.04-.22.815-.47.815-1.694.815-2.35 0-4.073-.07-5.295-.1-1.224-.06-1.976-.09-2.446-.09-.065 0-.597 0-1.256.034-.62 0-1.35.066-1.82.066-.34 0-.5-.066-.5-.25 0-.1.06-.19.25-.19.28 0 .66-.07.94-.13.63-.13.79-.82.91-1.72.16-1.32.16-3.79.16-6.8v-5.51zm25.786 5.513c0 3.006 0 5.48.158 6.796.094.9.28 1.59 1.222 1.72.438.06 1.128.12 1.41.12.188 0 .25.09.25.19 0 .15-.156.25-.5.25-1.724 0-3.7-.1-3.855-.1-.157 0-2.13.09-3.07.09-.346 0-.502-.06-.502-.25 0-.1.062-.19.25-.19.282 0 .66-.07.94-.13.627-.13.784-.81.91-1.72.156-1.32.156-3.79.156-6.8v-13.24l-4.64.06c-1.95.03-2.7.25-3.2 1-.35.53-.44.75-.54.97-.1.25-.19.31-.32.31-.1 0-.16-.1-.16-.28 0-.32.62-3.01.69-3.26.06-.19.18-.6.31-.6.22 0 .53.31 1.38.37.91.09 2.1.15 2.48.15h11.75c1 0 1.72-.06 2.22-.16.47-.06.75-.16.87-.16.16 0 .16.18.16.37 0 .94-.1 3.1-.1 3.45 0 .28-.1.4-.22.4-.16 0-.22-.09-.25-.53l-.03-.34c-.1-.94-.85-1.66-3.86-1.73l-3.95-.06v13.25zm17.61 0c0 3.006 0 5.48.157 6.796.094.9.282 1.59 1.222 1.72.43.06 1.12.12 1.41.12.18 0 .25.09.25.19 0 .15-.16.25-.51.25-1.73 0-3.7-.1-3.86-.1-.16 0-2.13.09-3.07.09-.35 0-.5-.06-.5-.25 0-.1.06-.19.25-.19.28 0 .66-.07.94-.13.62-.13.78-.81.91-1.72.15-1.32.15-3.79.15-6.8v-5.51c0-4.89 0-5.77-.07-6.77-.07-1.07-.38-1.6-1.07-1.76-.35-.1-.76-.13-.97-.13-.13 0-.26-.07-.26-.19 0-.19.16-.25.5-.25 1.04 0 3.01.09 3.17.09.15 0 2.13-.1 3.07-.1.34 0 .5.06.5.25 0 .13-.13.19-.25.19-.22 0-.41.03-.79.09-.85.15-1.1.69-1.16 1.78-.06 1-.06 1.88-.06 6.77v5.51zm13.786 2.004c0 5.074 0 7.015-.94 9.24-.658 1.565-2.036 3.037-4.575 4.79-.4.282-.9.627-1.22.783-.06.03-.12.063-.22.063s-.22-.063-.22-.188c0-.188.16-.282.44-.47.38-.22.82-.595 1.1-.877 2.04-2.066 3.01-3.727 3.01-11.807v-9.05c0-4.88 0-5.76-.06-6.76-.06-1.06-.31-1.56-1.35-1.78-.25-.06-.78-.09-1.06-.09-.12 0-.25-.06-.25-.19 0-.19.16-.25.5-.25 1.41 0 3.39.1 3.54.1.16 0 2.14-.09 3.08-.09.35 0 .5.06.5.25 0 .13-.12.19-.25.19-.22 0-.41.03-.78.09-.85.16-1.1.69-1.16 1.79-.06 1-.06 1.88-.06 6.77v7.52zm14.854-15.815c.375-1.034.5-1.22.688-1.22.19 0 .313.155.69 1.126.47 1.19 5.39 14.124 7.3 18.885 1.13 2.787 2.038 3.288 2.696 3.477.47.156.94.188 1.253.188.19 0 .314.03.314.187 0 .188-.28.25-.62.25-.47 0-2.76 0-4.92-.062-.59-.03-.94-.03-.94-.22 0-.124.1-.187.22-.218.19-.063.38-.345.19-.846l-2.91-7.71c-.06-.13-.12-.19-.28-.19h-6.73c-.15 0-.25.09-.31.25l-1.88 5.54c-.28.78-.44 1.53-.44 2.1 0 .62.66.9 1.2.9h.31c.22 0 .32.06.32.19 0 .19-.19.25-.47.25-.75 0-2.1-.1-2.44-.1-.35 0-2.07.09-3.54.09-.41 0-.6-.06-.6-.25 0-.13.13-.19.28-.19.22 0 .66-.03.91-.07 1.44-.19 2.07-1.38 2.64-2.94l7.12-19.45zm3.258 12.527c.156 0 .156-.1.125-.22l-2.977-8.46c-.157-.47-.313-.47-.47 0l-2.757 8.45c-.07.15 0 .22.09.22h5.98z" stroke="none" fill="#000000" stroke-width="1px"></path>
    </g>
    </svg>